<svg width="18" height="19" viewBox="0 0 18 19" fill="none" xmlns="http://www.w3.org/2000/svg">
<g id="Frame" clip-path="url(#clip0_510_112410)">
<path id="Vector" d="M6.1875 10.625V9.5C6.1875 9.35082 6.24676 9.20774 6.35225 9.10225C6.45774 8.99676 6.60082 8.9375 6.75 8.9375C6.89918 8.9375 7.04226 8.99676 7.14775 9.10225C7.25324 9.20774 7.3125 9.35082 7.3125 9.5V10.625C7.3125 10.7742 7.25324 10.9173 7.14775 11.0227C7.04226 11.1282 6.89918 11.1875 6.75 11.1875C6.60082 11.1875 6.45774 11.1282 6.35225 11.0227C6.24676 10.9173 6.1875 10.7742 6.1875 10.625ZM9 11.1875C9.14918 11.1875 9.29226 11.1282 9.39775 11.0227C9.50324 10.9173 9.5625 10.7742 9.5625 10.625V8.9375C9.5625 8.78832 9.50324 8.64524 9.39775 8.53975C9.29226 8.43426 9.14918 8.375 9 8.375C8.85082 8.375 8.70774 8.43426 8.60225 8.53975C8.49676 8.64524 8.4375 8.78832 8.4375 8.9375V10.625C8.4375 10.7742 8.49676 10.9173 8.60225 11.0227C8.70774 11.1282 8.85082 11.1875 9 11.1875ZM11.25 11.1875C11.3992 11.1875 11.5423 11.1282 11.6477 11.0227C11.7532 10.9173 11.8125 10.7742 11.8125 10.625V8.375C11.8125 8.22582 11.7532 8.08274 11.6477 7.97725C11.5423 7.87176 11.3992 7.8125 11.25 7.8125C11.1008 7.8125 10.9577 7.87176 10.8523 7.97725C10.7468 8.08274 10.6875 8.22582 10.6875 8.375V10.625C10.6875 10.7742 10.7468 10.9173 10.8523 11.0227C10.9577 11.1282 11.1008 11.1875 11.25 11.1875ZM15.1875 6.125V12.875H15.75C15.8992 12.875 16.0423 12.9343 16.1477 13.0398C16.2532 13.1452 16.3125 13.2883 16.3125 13.4375C16.3125 13.5867 16.2532 13.7298 16.1477 13.8352C16.0423 13.9407 15.8992 14 15.75 14H9.5625V15.222C9.93781 15.3547 10.2541 15.6158 10.4555 15.9592C10.657 16.3025 10.7305 16.706 10.6632 17.0984C10.5959 17.4907 10.392 17.8466 10.0877 18.1032C9.78333 18.3598 9.39807 18.5005 9 18.5005C8.60193 18.5005 8.21667 18.3598 7.91232 18.1032C7.60797 17.8466 7.40412 17.4907 7.3368 17.0984C7.26949 16.706 7.34304 16.3025 7.54446 15.9592C7.74588 15.6158 8.06219 15.3547 8.4375 15.222V14H2.25C2.10082 14 1.95774 13.9407 1.85225 13.8352C1.74676 13.7298 1.6875 13.5867 1.6875 13.4375C1.6875 13.2883 1.74676 13.1452 1.85225 13.0398C1.95774 12.9343 2.10082 12.875 2.25 12.875H2.8125V6.125C2.51413 6.125 2.22798 6.00647 2.017 5.7955C1.80603 5.58452 1.6875 5.29837 1.6875 5V3.875C1.6875 3.57663 1.80603 3.29048 2.017 3.0795C2.22798 2.86853 2.51413 2.75 2.8125 2.75H15.1875C15.4859 2.75 15.772 2.86853 15.983 3.0795C16.194 3.29048 16.3125 3.57663 16.3125 3.875V5C16.3125 5.29837 16.194 5.58452 15.983 5.7955C15.772 6.00647 15.4859 6.125 15.1875 6.125ZM9.5625 16.8125C9.5625 16.7012 9.52951 16.5925 9.4677 16.5C9.40589 16.4075 9.31804 16.3354 9.21526 16.2928C9.11248 16.2502 8.99938 16.2391 8.89026 16.2608C8.78115 16.2825 8.68092 16.3361 8.60225 16.4148C8.52359 16.4934 8.47001 16.5936 8.44831 16.7028C8.4266 16.8119 8.43774 16.925 8.48032 17.0278C8.52289 17.1305 8.59499 17.2184 8.68749 17.2802C8.77999 17.342 8.88875 17.375 9 17.375C9.14918 17.375 9.29226 17.3157 9.39775 17.2102C9.50324 17.1048 9.5625 16.9617 9.5625 16.8125ZM2.8125 5H15.1875V3.875H2.8125V5ZM14.0625 6.125H3.9375V12.875H14.0625V6.125Z" fill="white"/>
</g>
<defs>
<clipPath id="clip0_510_112410">
<rect width="18" height="18" fill="white" transform="translate(0 0.5)"/>
</clipPath>
</defs>
</svg>
